<mxfile host="app.diagrams.net" modified="2020-08-28T08:34:52.623Z" agent="5.0 (Macintosh; Intel Mac OS X 10_13_6) AppleWebKit/537.36 (KHTML, like Gecko) Chrome/85.0.4183.83 Safari/537.36" etag="ip_2ikYs49-E0CrFcPkO" version="13.6.5" type="github">
  <diagram id="_IGk3bS5AYMR6ddPXyHb" name="Page-1">
    <mxGraphModel dx="946" dy="541" grid="1" gridSize="10" guides="1" tooltips="1" connect="1" arrows="1" fold="1" page="1" pageScale="1" pageWidth="827" pageHeight="1169" math="0" shadow="0">
      <root>
        <mxCell id="0" />
        <mxCell id="1" parent="0" />
        <mxCell id="ZvmOiowGU-iORvjBQLAC-7" value="" style="edgeStyle=orthogonalEdgeStyle;rounded=0;orthogonalLoop=1;jettySize=auto;html=1;" parent="1" source="ZvmOiowGU-iORvjBQLAC-1" target="ZvmOiowGU-iORvjBQLAC-2" edge="1">
          <mxGeometry relative="1" as="geometry" />
        </mxCell>
        <mxCell id="ZvmOiowGU-iORvjBQLAC-8" value="" style="edgeStyle=orthogonalEdgeStyle;rounded=0;orthogonalLoop=1;jettySize=auto;html=1;entryX=0;entryY=0.5;entryDx=0;entryDy=0;" parent="1" source="ZvmOiowGU-iORvjBQLAC-1" target="ZvmOiowGU-iORvjBQLAC-3" edge="1">
          <mxGeometry relative="1" as="geometry" />
        </mxCell>
        <mxCell id="ZvmOiowGU-iORvjBQLAC-1" value="DB数据" style="shape=cylinder2;whiteSpace=wrap;html=1;boundedLbl=1;backgroundOutline=1;size=15;" parent="1" vertex="1">
          <mxGeometry x="50" y="290" width="60" height="110" as="geometry" />
        </mxCell>
        <mxCell id="z79pxpL1Giz_amRqfKHI-4" style="edgeStyle=orthogonalEdgeStyle;rounded=0;orthogonalLoop=1;jettySize=auto;html=1;entryX=0;entryY=0.5;entryDx=0;entryDy=0;" edge="1" parent="1" source="ZvmOiowGU-iORvjBQLAC-2" target="z79pxpL1Giz_amRqfKHI-3">
          <mxGeometry relative="1" as="geometry" />
        </mxCell>
        <mxCell id="ZvmOiowGU-iORvjBQLAC-2" value="DataX" style="rounded=1;whiteSpace=wrap;html=1;" parent="1" vertex="1">
          <mxGeometry x="160" y="250" width="120" height="60" as="geometry" />
        </mxCell>
        <mxCell id="ZvmOiowGU-iORvjBQLAC-13" value="" style="edgeStyle=orthogonalEdgeStyle;rounded=0;orthogonalLoop=1;jettySize=auto;html=1;" parent="1" source="ZvmOiowGU-iORvjBQLAC-3" target="ZvmOiowGU-iORvjBQLAC-4" edge="1">
          <mxGeometry relative="1" as="geometry" />
        </mxCell>
        <mxCell id="ZvmOiowGU-iORvjBQLAC-3" value="CDC" style="rounded=1;whiteSpace=wrap;html=1;" parent="1" vertex="1">
          <mxGeometry x="160" y="390" width="120" height="60" as="geometry" />
        </mxCell>
        <mxCell id="z79pxpL1Giz_amRqfKHI-1" value="" style="edgeStyle=orthogonalEdgeStyle;rounded=0;orthogonalLoop=1;jettySize=auto;html=1;" edge="1" parent="1" source="ZvmOiowGU-iORvjBQLAC-4" target="ZvmOiowGU-iORvjBQLAC-5">
          <mxGeometry relative="1" as="geometry" />
        </mxCell>
        <mxCell id="ZvmOiowGU-iORvjBQLAC-4" value="Kafka" style="rounded=1;whiteSpace=wrap;html=1;" parent="1" vertex="1">
          <mxGeometry x="310" y="390" width="120" height="60" as="geometry" />
        </mxCell>
        <mxCell id="z79pxpL1Giz_amRqfKHI-5" value="" style="edgeStyle=orthogonalEdgeStyle;rounded=0;orthogonalLoop=1;jettySize=auto;html=1;" edge="1" parent="1" source="ZvmOiowGU-iORvjBQLAC-5" target="z79pxpL1Giz_amRqfKHI-3">
          <mxGeometry relative="1" as="geometry" />
        </mxCell>
        <mxCell id="ZvmOiowGU-iORvjBQLAC-5" value="Delta Table HotTable on OSS" style="rounded=1;whiteSpace=wrap;html=1;" parent="1" vertex="1">
          <mxGeometry x="480" y="390" width="120" height="60" as="geometry" />
        </mxCell>
        <mxCell id="ZvmOiowGU-iORvjBQLAC-6" value="Table on S3" style="rounded=1;whiteSpace=wrap;html=1;" parent="1" vertex="1">
          <mxGeometry x="690" y="250" width="120" height="60" as="geometry" />
        </mxCell>
        <mxCell id="ZvmOiowGU-iORvjBQLAC-9" value="历史数据" style="text;html=1;align=center;verticalAlign=middle;resizable=0;points=[];autosize=1;" parent="1" vertex="1">
          <mxGeometry x="100" y="300" width="60" height="20" as="geometry" />
        </mxCell>
        <mxCell id="ZvmOiowGU-iORvjBQLAC-10" value="binlog数据" style="text;html=1;align=center;verticalAlign=middle;resizable=0;points=[];autosize=1;" parent="1" vertex="1">
          <mxGeometry x="110" y="370" width="70" height="20" as="geometry" />
        </mxCell>
        <mxCell id="z79pxpL1Giz_amRqfKHI-6" value="" style="edgeStyle=orthogonalEdgeStyle;rounded=0;orthogonalLoop=1;jettySize=auto;html=1;entryX=0;entryY=0.5;entryDx=0;entryDy=0;" edge="1" parent="1" source="z79pxpL1Giz_amRqfKHI-3" target="ZvmOiowGU-iORvjBQLAC-6">
          <mxGeometry relative="1" as="geometry">
            <mxPoint x="635" y="310" as="targetPoint" />
          </mxGeometry>
        </mxCell>
        <mxCell id="z79pxpL1Giz_amRqfKHI-3" value="Delta master Table on OSS" style="rounded=1;whiteSpace=wrap;html=1;" vertex="1" parent="1">
          <mxGeometry x="480" y="250" width="120" height="60" as="geometry" />
        </mxCell>
        <mxCell id="z79pxpL1Giz_amRqfKHI-7" value="merge into master" style="text;html=1;align=center;verticalAlign=middle;resizable=0;points=[];autosize=1;" vertex="1" parent="1">
          <mxGeometry x="495" y="340" width="110" height="20" as="geometry" />
        </mxCell>
      </root>
    </mxGraphModel>
  </diagram>
</mxfile>
